<svg width="18" height="18" viewBox="0 0 18 18" fill="none" xmlns="http://www.w3.org/2000/svg">
<rect width="18" height="18" fill="white" fill-opacity="0.01"/>
<mask id="mask0" mask-type="alpha" maskUnits="userSpaceOnUse" x="7" y="2" width="4" height="14">
<path fill-rule="evenodd" clip-rule="evenodd" d="M7.50043 3.75C7.50043 4.57843 8.172 5.25 9.00043 5.25C9.82886 5.25 10.5004 4.57843 10.5004 3.75C10.5004 2.92157 9.82886 2.25 9.00043 2.25C8.172 2.25 7.50043 2.92157 7.50043 3.75ZM9 10.5C8.17157 10.5 7.5 9.8284 7.5 8.99998C7.5 8.17155 8.17157 7.49998 9 7.49998C9.82843 7.49998 10.5 8.17155 10.5 8.99998C10.5 9.8284 9.82843 10.5 9 10.5ZM9 15.75C8.17157 15.75 7.5 15.0784 7.5 14.25C7.5 13.4216 8.17157 12.75 9 12.75C9.82843 12.75 10.5 13.4216 10.5 14.25C10.5 15.0784 9.82843 15.75 9 15.75Z" fill="white"/>
</mask>
<g mask="url(#mask0)">
<rect width="18" height="18" fill="#424874"/>
</g>
</svg>
